/* XPM */
static char * icono_win_xpm[] = {
"32 32 71 1",
" 	c None",
".	c #FFFFFF",
"+	c #F0D6A6",
"@	c #F0D7A9",
"#	c #F1D9AC",
"$	c #F1DAAF",
"%	c #F2DCB2",
"&	c #F2DDB6",
"*	c #F3DFB9",
"=	c #DDA234",
"-	c #DC8539",
";	c #DB214C",
">	c #E04065",
",	c #F8D9E0",
"'	c #F1A6B7",
")	c #E04468",
"!	c #DC8439",
"~	c #DC254F",
"{	c #FDF2F4",
"]	c #E8708C",
"^	c #FBEDF0",
"/	c #FDF5F7",
"(	c #E66A87",
"_	c #E25173",
":	c #FCEBEF",
"<	c #DC8339",
"[	c #E56281",
"}	c #F2ADBD",
"|	c #EC8AA0",
"1	c #FDF8F9",
"2	c #FEF8FA",
"3	c #F8D7DF",
"4	c #FEF7F9",
"5	c #DC8239",
"6	c #DC2751",
"7	c #FBE9EE",
"8	c #FEFCFD",
"9	c #DC823A",
"0	c #ED93A8",
"a	c #FBE9ED",
"b	c #FFFEFE",
"c	c #DC813A",
"d	c #F8D5DD",
"e	c #FBE8ED",
"f	c #FADEE4",
"g	c #DC803A",
"h	c #DD3058",
"i	c #FDF6F8",
"j	c #DB244E",
"k	c #E8718C",
"l	c #E97791",
"m	c #E97A94",
"n	c #EA7D96",
"o	c #DF3C62",
"p	c #DC7F3A",
"q	c #DB3348",
"r	c #DB3747",
"s	c #DB224C",
"t	c #DB3A47",
"u	c #DC7E3A",
"v	c #DB3847",
"w	c #FEFCF9",
"x	c #DB3048",
"y	c #FEFDFA",
"z	c #DB2C4A",
"A	c #DC7D3A",
"B	c #DB2E49",
"C	c #DC8A38",
"D	c #DDA235",
"E	c #DEA43A",
"F	c #DFA841",
".......++@@@###$$$%%%&&&**......",
".......===================......",
".......=-;;;;;;;;;;;;;;;==......",
".......=->.;.,'.;..;.)..==......",
".......=!.;~..{.;..].)^/==......",
".......=!;.~(.{_;:.;.).:==......",
".......=!;;;;;;;;;;;;;;;==......",
".......=<;;;;[....};;;;;==......",
".......=<;;;|...1..2;;;;==......",
".......=<;;;...;;...;;;;==......",
".......=<;;;...34...;;;;==......",
".......=5;;6...7...8;;;;==......",
".......=9;;0...ab....;;;==......",
".......=c;;....;;;....;;==......",
".......=c;;....;;;....;;==......",
".......=c;;....de.....;;==......",
".......=c;;....f......;;==......",
".......=g;;....h.....i;;==......",
".......=g;;....j....4;;;==......",
".......=g;;;klmn;;o;;;;;==......",
".......=p;;;;;;;;;;;;;;;==......",
".......=p;;;;;;q=;;;;;;;==......",
".......=p;;;;;r===s;;;;;==......",
".......=p;;;;t==.==s;;;;==......",
".......=u;;;v==..w==;;;;==......",
".......=u;;x==....y==;;;==......",
".......=u;z==......b==;;==......",
".......=AB==.........==;==......",
".......=C==...........====......",
".......==D.............===......",
".......=E...............==......",
".......F.................=......"};
